<?xml version="1.0" encoding="UTF-8" standalone="no" ?>
<!DOCTYPE svg PUBLIC "-//W3C//DTD SVG 1.1//EN" "http://www.w3.org/Graphics/SVG/1.1/DTD/svg11.dtd">
<svg xmlns="http://www.w3.org/2000/svg" xmlns:xlink="http://www.w3.org/1999/xlink" version="1.1" width="1080" height="1080" viewBox="0 0 1080 1080" xml:space="preserve">
<desc>Created with Fabric.js 5.2.4</desc>
<defs>
</defs>
<rect x="0" y="0" width="100%" height="100%" fill="transparent"></rect>
<g transform="matrix(1 0 0 1 540 540)" id="55e6340b-5e6e-4bea-9308-e6075a6faa5c"  >
<rect style="stroke: none; stroke-width: 1; stroke-dasharray: none; stroke-linecap: butt; stroke-dashoffset: 0; stroke-linejoin: miter; stroke-miterlimit: 4; fill: rgb(255,255,255); fill-rule: nonzero; opacity: 1; visibility: hidden;" vector-effect="non-scaling-stroke"  x="-540" y="-540" rx="0" ry="0" width="1080" height="1080" />
</g>
<g transform="matrix(Infinity NaN NaN Infinity 0 0)" id="11f2f648-552a-4bd8-acbc-7f0db8b657f3"  >
</g>
<g transform="matrix(0.37 0 0 0.37 540 540)"  >
<g style=""   >
		<g transform="matrix(1.33 0 0 1.33 71.35 -582.8)"  >
<path style="stroke: none; stroke-width: 1; stroke-dasharray: none; stroke-linecap: butt; stroke-dashoffset: 0; stroke-linejoin: miter; stroke-miterlimit: 4; fill: rgb(0,0,0); fill-rule: nonzero; opacity: 1;" vector-effect="non-scaling-stroke"  transform=" translate(-1152.36, -642.9)" d="M 1168 0.3 C 1168 0.4 1166.7 11.100000000000001 1165.1 24.1 C 1161.8 50 1160.3 55.900000000000006 1155.6999999999998 60.7 C 1150.1 66.60000000000001 1142.9999999999998 68 1105.9999999999998 70.60000000000001 L 1080.3999999999999 72.4 L 1078.1 109.9 C 1076.8999999999999 130.6 1075.6 151.2 1075.3 155.7 L 1074.7 163.89999999999998 L 1107.6000000000001 164.2 C 1138.4 164.5 1140.7 164.6 1143.9 166.5 C 1150.9 170.6 1151.5 172.3 1151.8000000000002 190.6 C 1152.4 220.2 1147.9 230.6 1126.8000000000002 247.6 C 1100.3000000000002 269 1087.8000000000002 282.5 1076.2000000000003 302 C 1060.1000000000004 329.4 1053.2000000000003 361.4 1057.4000000000003 389.6 C 1060.3000000000004 409.20000000000005 1065.4000000000003 423.20000000000005 1076.5000000000002 441.90000000000003 C 1089.4000000000003 463.8 1090.5000000000002 467.8 1085.4000000000003 475.20000000000005 C 1081.3000000000004 481.00000000000006 1069.7000000000003 490.80000000000007 1063.1000000000004 493.90000000000003 C 1057.9000000000003 496.3 1056.5000000000005 496.50000000000006 1044.0000000000005 496.40000000000003 C 1031.7000000000005 496.40000000000003 1029.3000000000004 496.1 1016.8000000000004 492.70000000000005 C 990.2000000000004 485.6 957.1000000000004 472.70000000000005 871.5000000000005 436.50000000000006 C 751.8000000000004 385.90000000000003 657.4000000000004 357.30000000000007 585.5000000000005 350.1 C 543.7000000000005 345.90000000000003 503.6000000000005 349.6 472.50000000000045 360.5 C 434.20000000000044 374.1 405.20000000000044 397.6 378.30000000000047 437 C 371.80000000000047 446.5 356.80000000000047 474.9 351.00000000000045 488.5 C 324.50000000000045 551.1 322.50000000000045 605.3 343.90000000000043 687.5 C 355.70000000000044 732.6 372.3000000000004 779.9 407.00000000000045 867.5 C 438.00000000000045 945.7 452.50000000000045 987.6 464.50000000000045 1033.4 C 475.90000000000043 1077.4 480.40000000000043 1115.4 476.50000000000045 1135.5 C 474.30000000000047 1147.2 474.20000000000044 1156.6 476.40000000000043 1160.8 C 479.6000000000004 1167 481.90000000000043 1167.7 512.0000000000005 1171.3999999999999 C 564.8000000000004 1177.9999999999998 627.8000000000004 1184.1 907.5000000000005 1209.9999999999998 C 1014.8000000000004 1219.8999999999999 1133.6000000000004 1230.9999999999998 1171.5000000000005 1234.4999999999998 C 1330.8000000000004 1249.5999999999997 1461.8000000000004 1262.0999999999997 1468.1000000000004 1262.9999999999998 C 1477.1000000000004 1264.2999999999997 1559.2000000000003 1272.3999999999999 1590.0000000000005 1274.9999999999998 C 1617.9000000000005 1277.3999999999999 1665.8000000000004 1282.0999999999997 1686.5000000000005 1284.5999999999997 C 1714.8000000000004 1287.8999999999996 1718.7000000000005 1285.3999999999996 1718.9000000000005 1263.9999999999998 C 1719.2000000000005 1238.1999999999998 1732.3000000000006 1200.1999999999998 1761.1000000000006 1141.9999999999998 C 1785.4000000000005 1092.7999999999997 1809.1000000000006 1052.3999999999999 1845.0000000000007 998.4999999999998 C 1935.2000000000007 863.3999999999997 1970.4000000000008 784.8999999999997 1974.9000000000008 709.3999999999997 C 1976.5000000000007 683.4999999999998 1974.2000000000007 660.7999999999997 1967.4000000000008 633.5999999999998 C 1949.3000000000009 561.5999999999998 1909.7000000000007 514.1999999999998 1839.5000000000007 480.9999999999998 C 1808.3000000000006 466.19999999999976 1792.3000000000006 462.69999999999976 1746.6000000000006 460.89999999999975 C 1696.5000000000007 458.89999999999975 1635.8000000000006 462.9999999999998 1572.5000000000007 472.4999999999998 C 1548.3000000000006 476.19999999999976 1537.0000000000007 478.39999999999975 1483.9000000000008 489.89999999999975 C 1402.9000000000008 507.2999999999997 1305.2000000000007 524.9999999999998 1289.2000000000007 524.9999999999998 C 1276.0000000000007 524.9999999999998 1272.0000000000007 522.6999999999998 1259.7000000000007 508.19999999999976 C 1248.8000000000006 495.2999999999998 1246.7000000000007 491.7999999999998 1246.8000000000006 486.4999999999998 C 1246.8000000000006 480.69999999999976 1249.5000000000007 476.2999999999998 1260.2000000000007 463.69999999999976 C 1282.7000000000007 436.9999999999998 1289.8000000000006 424.59999999999974 1296.1000000000008 400.9999999999998 C 1299.1000000000008 389.7999999999998 1299.8000000000009 366.39999999999975 1297.6000000000008 353.0999999999998 C 1293.500000000001 328.5999999999998 1285.6000000000008 309.8999999999998 1267.4000000000008 281.7999999999998 C 1252.9000000000008 259.2999999999998 1244.2000000000007 239.79999999999978 1240.5000000000007 221.1999999999998 C 1238.2000000000007 209.89999999999978 1238.7000000000007 186.0999999999998 1241.4000000000008 181.1999999999998 C 1244.6000000000008 174.9999999999998 1246.9000000000008 174.5999999999998 1278.6000000000008 175.39999999999978 C 1309.4000000000008 176.1999999999998 1312.9000000000008 175.79999999999978 1317.3000000000009 171.29999999999978 C 1320.9000000000008 167.49999999999977 1322.4000000000008 162.5999999999998 1325.1000000000008 146.39999999999978 C 1326.8000000000009 136.1999999999998 1327.500000000001 128.49999999999977 1327.500000000001 117.49999999999977 C 1327.500000000001 102.99999999999977 1327.400000000001 102.39999999999978 1324.8000000000009 97.89999999999978 C 1323.3000000000009 95.39999999999978 1321.000000000001 92.49999999999977 1319.6000000000008 91.59999999999978 C 1315.6000000000008 88.99999999999979 1306.2000000000007 86.99999999999979 1298.4000000000008 86.99999999999979 C 1273.5000000000007 86.99999999999979 1260.9000000000008 80.59999999999978 1256.5000000000007 65.69999999999979 C 1254.3000000000006 58.49999999999979 1253.0000000000007 40.89999999999979 1253.0000000000007 18.69999999999979 L 1253.0000000000007 0 L 1210.5000000000007 0 C 1187.1000000000006 0 1168.0000000000007 0.1 1168.0000000000007 0.3 z M 605 438 C 641.3 439.8 659 443.1 694.5 454.6 C 734.6 467.6 809.3 498.6 869.1 527 C 932.2 557 978.9 585.6 988.5 600.3 C 989.7 602.1999999999999 990.8 607 991.7 614.8 C 993.5 630.5 999.8000000000001 661.4 1007.1 690 C 1010.4 702.9 1015.8000000000001 724.1 1019.1 737 C 1043.3 832.2 1048.9 906.5 1036.6 966.6 C 1028.3999999999999 1006.6 1011.9999999999999 1039.7 985.1999999999999 1070.2 C 967.6999999999999 1090.3 951.0999999999999 1104 938.3 1109.1000000000001 C 933.5 1111.1000000000001 930.6999999999999 1111.4 922 1111.4 C 912.7 1111.4 910.5 1111 903.3 1108.3000000000002 C 886.4 1101.9 868.6999999999999 1090.4 855.5999999999999 1077.5000000000002 C 833.6999999999999 1055.7000000000003 818.6999999999999 1028.1000000000001 817.3 1007.0000000000002 C 816.8 999.4000000000002 817 998.2000000000003 818.9 995.9000000000002 C 822.4 991.4000000000002 827.5 990.9000000000002 861.1999999999999 991.2000000000002 L 891.8 991.5000000000001 L 895.5999999999999 988.5000000000001 C 901.5999999999999 983.6000000000001 902.3 980.4000000000001 902.3999999999999 956.5000000000001 C 902.4999999999999 933.9000000000001 901.9999999999999 930.5000000000001 897.2999999999998 924.9000000000001 C 891.8999999999999 918.5000000000001 881.0999999999998 914.9000000000001 852.4999999999999 910.0000000000001 C 824.3999999999999 905.1000000000001 818.0999999999999 902.9000000000001 812.9999999999999 895.8000000000001 C 808.9999999999999 890.3000000000001 806.6999999999999 882.5000000000001 803.5999999999999 863.4000000000001 C 796.4999999999999 820.3000000000001 793.5999999999999 817.3000000000001 752.1999999999999 810.0000000000001 C 721.5999999999999 804.6000000000001 714.4 806.7000000000002 713.3 821.2000000000002 C 712.6999999999999 828.4000000000002 713.5 835.4000000000002 718.5999999999999 868.8000000000002 C 720.5999999999999 881.6000000000001 721.9999999999999 892.4000000000002 721.6999999999999 892.7000000000002 C 721.3 893.0000000000001 708.0999999999999 892.5000000000001 692.3 891.6000000000001 C 676.5 890.7000000000002 653.6999999999999 889.7000000000002 641.8 889.3000000000002 C 623.0999999999999 888.8000000000002 620 888.9000000000002 620 890.1000000000001 C 620 893.6000000000001 625.1 935.5000000000001 626.1 940.3000000000002 C 628.7 952.3000000000002 634.6 960.7000000000002 643.4 965.0000000000002 C 649.3 967.8000000000002 661.3 969.9000000000002 672 970.0000000000002 C 682.9 970.0000000000002 697.9 971.6000000000003 705.2 973.5000000000002 C 721.8000000000001 977.7000000000003 731.4000000000001 986.7000000000003 736.7 1003.0000000000002 C 740.4000000000001 1014.3000000000002 740.2 1043.2000000000003 736.4000000000001 1058.7000000000003 C 731.4000000000001 1078.9000000000003 719.3000000000001 1088.0000000000002 697.3000000000001 1088.0000000000002 C 679.8000000000001 1088.0000000000002 660.5000000000001 1080.1000000000001 641.5000000000001 1065.1000000000001 C 598.6000000000001 1031.3000000000002 552.3000000000001 959.1000000000001 498.4000000000001 842.2000000000002 C 447.0000000000001 730.8000000000002 424.80000000000007 655.4000000000001 424.9000000000001 592.5000000000002 C 424.9000000000001 560.8000000000002 429.2000000000001 539.7000000000003 440.80000000000007 514.0000000000002 C 465.9000000000001 458.4000000000002 501.00000000000006 438.9000000000002 579.5 437.2000000000002 C 582.8 437.1000000000002 594.3 437.5000000000002 605 438.0000000000002 z M 1731 541.9 C 1781.4 549.5 1828.6 573.8 1853.3 605 C 1867.5 622.9 1875.7 637.8 1878.6 650.8 C 1881.8 665.4 1879.3999999999999 703.0999999999999 1873.3 733 C 1860.6 795.4 1843.1 833.3 1790 913 C 1720.3 1017.7 1632.8 1118.9 1588.5 1146 C 1574 1154.9 1556 1161.5 1538 1164.6 C 1526.5 1166.6 1509.2 1166.1 1501 1163.5 C 1486.3 1158.9 1477.9 1139.3 1479.4 1112.5 C 1480.7 1088 1487.5 1071.1 1498.8000000000002 1064.4 C 1507.4 1059.2 1514.8000000000002 1057.9 1541.5000000000002 1056.9 C 1577.3000000000002 1055.6000000000001 1590.1000000000001 1053.6000000000001 1602.0000000000002 1047.4 C 1618.4000000000003 1039 1625.4000000000003 1019.2 1620.6000000000001 994.8000000000001 C 1617.4 978.2 1611.6000000000001 975.5000000000001 1572.5000000000002 972.0000000000001 C 1549.0000000000002 969.9000000000001 1534.4000000000003 967.9000000000001 1529.5000000000002 966.0000000000001 C 1527.2000000000003 965.1000000000001 1526.9000000000003 964.6000000000001 1527.5000000000002 962.2000000000002 C 1528.5000000000002 958.2000000000002 1533.4000000000003 947.3000000000002 1541.0000000000002 932.0000000000001 C 1548.5000000000002 917.0000000000001 1551.0000000000002 909.8000000000001 1551.0000000000002 903.2000000000002 C 1551.0000000000002 889.3000000000002 1539.9000000000003 884.3000000000002 1511.5000000000002 885.3000000000002 C 1495.8000000000002 885.9000000000002 1482.8000000000002 887.8000000000002 1476.7000000000003 890.4000000000002 C 1471.1000000000004 892.7000000000002 1464.6000000000004 899.4000000000002 1461.1000000000004 906.3000000000002 C 1459.4000000000003 909.8000000000002 1455.5000000000005 919.8000000000002 1452.4000000000003 928.6000000000001 C 1445.3000000000004 948.6000000000001 1442.6000000000004 954.3000000000002 1438.4000000000003 958.0000000000001 C 1432.8000000000004 962.9000000000001 1429.3000000000004 963.3000000000001 1400.0000000000002 962.5000000000001 C 1357.2000000000003 961.4000000000001 1350.0000000000002 963.9000000000001 1341.3000000000002 982.8000000000001 C 1334.6000000000001 997.1 1326.0000000000002 1026.3000000000002 1326.0000000000002 1034.4 C 1326.0000000000002 1037.3000000000002 1325.1000000000001 1037 1348.5000000000002 1040.5 C 1390.1000000000001 1046.7 1408.4000000000003 1050.5 1411.5000000000002 1053.7 C 1413.9000000000003 1056 1412.8000000000002 1060.8 1407.5000000000002 1071.5 C 1401.3000000000002 1083.7 1391.5000000000002 1097.3 1379.6000000000001 1109.7 C 1349.0000000000002 1141.8 1316.0000000000002 1152.6000000000001 1284.1000000000001 1141 C 1252.5000000000002 1129.4 1226.5000000000002 1094.5 1212.5000000000002 1044.6 C 1205.7000000000003 1020.0999999999999 1204.6000000000001 1011.6999999999999 1204.6000000000001 981.9999999999999 C 1204.6000000000001 948.2999999999998 1207.5000000000002 925.8999999999999 1216.6000000000001 889.4999999999999 C 1227.8000000000002 844.7999999999998 1242.5000000000002 805.8999999999999 1273.8000000000002 738.8999999999999 C 1294.8000000000002 694.0999999999999 1308.1000000000001 662.9999999999999 1312.7000000000003 648.4999999999999 C 1317.5000000000002 633.6999999999999 1317.5000000000002 633.6999999999999 1324.1000000000004 628.9999999999999 C 1356.2000000000003 606.4999999999999 1483.5000000000005 570.1999999999999 1599.4000000000003 550.4999999999999 C 1632.6000000000004 544.8999999999999 1656.8000000000004 541.8999999999999 1689.5000000000002 539.5999999999999 C 1698.7000000000003 538.8999999999999 1718.4000000000003 539.9999999999999 1731.0000000000002 541.8999999999999 z" stroke-linecap="round" />
</g>
		<g transform="matrix(1.33 0 0 1.33 -25.41 376.95)"  >
<path style="stroke: none; stroke-width: 1; stroke-dasharray: none; stroke-linecap: butt; stroke-dashoffset: 0; stroke-linejoin: miter; stroke-miterlimit: 4; fill: rgb(0,0,0); fill-rule: nonzero; opacity: 1;" vector-effect="non-scaling-stroke"  transform=" translate(-1079.78, -1362.71)" d="M 454.2 1260.2 C 450.4 1281.1000000000001 448.8 1292 444.5 1326.3 C 442.2 1345.1 440.3 1360.6 440.4 1360.7 C 440.4 1360.8 474.7 1363.6000000000001 516.5 1366.9 C 698.1 1381.5 742.1 1385.5 890 1400.9 C 951.5 1407.4 1085.6 1420.4 1270 1438 C 1351.1 1445.7 1464.3 1456.8 1521.5 1462.5 C 1653.4 1475.7 1658.9 1476.2 1680 1476.4 C 1696.8 1476.5 1697.7 1476.4 1702.5 1474 C 1708.6 1471 1710.2 1468.3 1713.4 1456 C 1720.9 1427.6 1721.1000000000001 1387.8 1713.9 1372.5 C 1710.1000000000001 1364.4 1709.8000000000002 1364.3 1687.5 1362.5 C 1656.5 1360 1574.2 1352.4 1524.6 1347.4 C 1473.8 1342.4 1250.3999999999999 1320.8000000000002 1070.5 1303.6000000000001 C 680 1266.2 489.20000000000005 1249.0000000000002 462.4 1249.0000000000002 L 456.2 1249.0000000000002 L 454.2 1260.2000000000003 z" stroke-linecap="round" />
</g>
		<g transform="matrix(1.33 0 0 1.33 -31.12 947.58)"  >
<path style="stroke: none; stroke-width: 1; stroke-dasharray: none; stroke-linecap: butt; stroke-dashoffset: 0; stroke-linejoin: miter; stroke-miterlimit: 4; fill: rgb(0,0,0); fill-rule: nonzero; opacity: 1;" vector-effect="non-scaling-stroke"  transform=" translate(-1075.5, -1790.69)" d="M 446.6 1422.6 C 443.70000000000005 1430.1 442 1614 442 1916.6999999999998 L 442 2160 L 1709 2160 L 1709 1548.2 L 1706.3 1547.6000000000001 C 1682.8 1542.7 1634.5 1537.2 1523.5 1527.0000000000002 C 1467 1521.8000000000002 1413.1 1516.4000000000003 1392.6 1513.9000000000003 C 1369.5 1511.1000000000004 1330.8 1507.2000000000003 1228.5 1497.5000000000002 C 1124.8 1487.6000000000001 905.6 1465.9000000000003 880.5 1463.0000000000002 C 836.8 1458.0000000000002 569.9 1432.1000000000001 478.5 1424.1000000000001 C 465.9 1422.9 453.6 1421.8000000000002 451.3 1421.5000000000002 C 448.2 1421.2000000000003 447 1421.4000000000003 446.6 1422.6000000000001 z M 1358.4 1820.3999999999999 C 1364.3000000000002 1822.1999999999998 1370.7 1827.1 1375.3000000000002 1833.3 C 1383.2000000000003 1843.8999999999999 1382.3000000000002 1856 1373.1000000000001 1864.2 C 1366.6000000000001 1870.1000000000001 1360.4 1872 1348.1000000000001 1872 C 1330.7 1872 1325.6000000000001 1867.2 1325.6000000000001 1851 C 1325.6000000000001 1840.7 1327.7 1833.9 1332.6000000000001 1828.1 C 1339.6000000000001 1820 1348.4 1817.3999999999999 1358.4 1820.3999999999999 z M 801.6000000000001 1829.1999999999998 C 804.5000000000001 1830.1999999999998 808.8000000000002 1832.8999999999999 811.3000000000002 1835.1 C 830.8000000000002 1852.1999999999998 820.7000000000002 1883.1 794.3000000000002 1886.5 C 788.1000000000001 1887.4 779.4000000000002 1885.1 776.3000000000002 1881.8 C 770.1000000000001 1875.2 767.5000000000002 1860 770.4000000000002 1847.7 C 774.9000000000002 1828.5 784.4000000000002 1822.8 801.6000000000003 1829.2 z M 1115.5 1988.9999999999998 C 1135.5 1990.8999999999999 1142.5 1994.1999999999998 1142.5 2001.9999999999998 C 1142.5 2005.5999999999997 1141.9 2006.6999999999998 1139.1 2009.0999999999997 C 1132.3999999999999 2014.5999999999997 1119.1999999999998 2015.9999999999998 1071 2015.9999999999998 C 1020.2 2015.9999999999998 1007.1 2014.3999999999999 1001.6 2007.8999999999999 C 997.9 2003.4999999999998 998.2 1999.4999999999998 1002.4 1995.4999999999998 C 1006.1999999999999 1991.9999999999998 1012.1 1990.2999999999997 1025.6 1988.9999999999998 C 1037.6999999999998 1987.8999999999999 1103.1 1987.8999999999999 1115.5 1988.9999999999998 z" stroke-linecap="round" />
</g>
		<g transform="matrix(1.33 0 0 1.33 -1061.01 1005.33)"  >
<path style="stroke: none; stroke-width: 1; stroke-dasharray: none; stroke-linecap: butt; stroke-dashoffset: 0; stroke-linejoin: miter; stroke-miterlimit: 4; fill: rgb(0,0,0); fill-rule: nonzero; opacity: 1;" vector-effect="non-scaling-stroke"  transform=" translate(-303.08, -1834)" d="M 359.5 1616.6 C 335.1 1629.3999999999999 323 1636.8999999999999 310.5 1646.8999999999999 C 284.8 1667.6 262.7 1695.4999999999998 243.8 1730.9999999999998 C 224.8 1766.5999999999997 220.5 1789.2999999999997 222.9 1840.8999999999999 C 225.8 1904.1 230.3 1922.3999999999999 250.6 1954.1999999999998 C 274.4 1991.3999999999999 356.3 2064 374.5 2064 C 377.2 2064 377.5 2063.1 378.9 2049.5 C 383 2010.5 384.2 1941.3 383.79999999999995 1761.8 L 383.49999999999994 1604 L 359.49999999999994 1616.6 z" stroke-linecap="round" />
</g>
		<g transform="matrix(1.33 0 0 1.33 1002.88 1005.25)"  >
<path style="stroke: none; stroke-width: 1; stroke-dasharray: none; stroke-linecap: butt; stroke-dashoffset: 0; stroke-linejoin: miter; stroke-miterlimit: 4; fill: rgb(0,0,0); fill-rule: nonzero; opacity: 1;" vector-effect="non-scaling-stroke"  transform=" translate(-1851, -1833.94)" d="M 1774.6 1604.8 C 1774.1999999999998 1605.3999999999999 1773.3 1612.1 1772.5 1619.7 C 1765.4 1689.4 1765.1 1964.3000000000002 1772.1 2044.5 C 1773.3999999999999 2059.9 1774.1999999999998 2063.4 1776.1999999999998 2063.8 C 1780.4999999999998 2064.6000000000004 1824.6999999999998 2038.5000000000002 1841.6999999999998 2025.0000000000002 C 1854.6999999999998 2014.7000000000003 1877.7999999999997 1992.0000000000002 1888.4999999999998 1979.0000000000002 C 1905.6999999999998 1958.2000000000003 1922.0999999999997 1929.5000000000002 1928.3999999999999 1909.5000000000002 C 1932.8 1895.4000000000003 1934.9999999999998 1870.4000000000003 1934.9999999999998 1834.0000000000002 C 1934.9999999999998 1793.6000000000001 1932.4999999999998 1769.7000000000003 1926.3999999999999 1752.8000000000002 C 1919.4999999999998 1733.7000000000003 1904.6 1708.9 1889.1 1691.0000000000002 C 1861.3999999999999 1658.9000000000003 1815.6999999999998 1620.6000000000001 1790.6 1608.5000000000002 C 1782.3999999999999 1604.6000000000001 1775.6999999999998 1603.0000000000002 1774.6 1604.8000000000002 z" stroke-linecap="round" />
</g>
</g>
</g>
</svg>